<?xml version="1.0" encoding="iso-8859-1"?>
<!-- Generator: Adobe Illustrator 16.0.0, SVG Export Plug-In . SVG Version: 6.00 Build 0)  -->
<!DOCTYPE svg PUBLIC "-//W3C//DTD SVG 1.1//EN" "http://www.w3.org/Graphics/SVG/1.1/DTD/svg11.dtd">
<svg version="1.1" id="Capa_1" xmlns="http://www.w3.org/2000/svg" xmlns:xlink="http://www.w3.org/1999/xlink" x="0px" y="0px"
	 width="367.389px" height="367.389px" viewBox="0 0 367.389 367.389" style="enable-background:new 0 0 367.389 367.389;"
	 xml:space="preserve">
<g>
	<g>
		<path d="M75.177,71.774h23.298c1.152,0,2.077-0.924,2.077-2.069c0-1.148-0.924-2.087-2.077-2.087H75.177
			c-1.153,0-2.077,0.939-2.077,2.087C73.1,70.85,74.024,71.774,75.177,71.774z"/>
		<path d="M349.677,269.118V245.82c0-1.147-0.924-2.072-2.077-2.072c-1.143,0-2.066,0.925-2.066,2.072v23.298
			c0,1.152,0.924,2.087,2.066,2.087C348.753,271.205,349.677,270.275,349.677,269.118z"/>
		<path d="M0,341.021c0,11.695,9.503,21.206,21.195,21.206h131.258c7.79,0,14.576-4.235,18.235-10.526
			c2.196-3.769,6.162-7.399,10.532-7.399h164.973c11.685,0,21.195-9.506,21.195-21.189V191.846c0-11.692-9.501-21.196-21.195-21.196
			H181.804c-4.362,0-7.901,1.856-7.901,4.139c0,2.285,3.54,4.142,7.901,4.142h164.389c7.109,0,12.908,5.796,12.908,12.916v131.26
			c0,7.109-5.789,12.898-12.908,12.898H181.55c-4.359,0-7.899-1.833-7.899-4.098c0-2.26,3.54-4.104,7.899-4.104h149.292
			c1.157,0,2.082-0.924,2.082-2.066V189.206c0-1.143-0.925-2.067-2.082-2.067H181.55c-4.359,0-7.899-3.539-7.899-7.901V71.127
			c0-11.7-9.506-21.206-21.198-21.206H21.195C9.514,49.921,0,59.427,0,71.127V341.021z M181.55,191.277h139.334
			c4.357,0,7.896,3.539,7.896,7.901v116.585c0,4.362-3.539,7.901-7.896,7.901H181.55c-4.359,0-7.899-3.539-7.899-7.901V199.178
			C173.651,194.816,177.181,191.277,181.55,191.277z M165.364,71.127v269.894c0,7.125-5.784,12.919-12.911,12.919H21.195
			c-7.109,0-12.908-5.784-12.908-12.919V71.127c0-7.112,5.792-12.918,12.908-12.918h131.258
			C159.573,58.208,165.364,64.007,165.364,71.127z"/>
		<path d="M16.488,86.46v236.951c0,1.148,0.924,2.072,2.069,2.072h136.529c1.153,0,2.077-0.924,2.077-2.072V86.46
			c0-1.137-0.924-2.069-2.077-2.069H18.558C17.412,84.391,16.488,85.323,16.488,86.46z M28.536,88.529h116.58
			c4.362,0,7.899,3.54,7.899,7.901v217.022c0,4.357-3.537,7.896-7.899,7.896H28.536c-4.362,0-7.901-3.539-7.901-7.896V96.43
			C20.634,92.069,24.166,88.529,28.536,88.529z"/>
		<path d="M98.759,330.22H74.893c-4.898,0-8.887,3.981-8.887,8.892v1.422c0,4.905,3.989,8.887,8.887,8.887h23.866
			c4.898,0,8.887-3.981,8.887-8.887v-1.422C107.646,334.202,103.657,330.22,98.759,330.22z M103.507,340.524
			c0,2.625-2.125,4.748-4.748,4.748H74.893c-2.607,0-4.748-2.133-4.748-4.748v-1.422c0-2.605,2.141-4.743,4.748-4.743h23.866
			c2.623,0,4.748,2.138,4.748,4.743V340.524z"/>
		<path d="M213.262,12.69c-11.897-5.002-24.506-7.528-37.47-7.528c-24.491,0-47.868,9.051-65.816,25.524
			c0,0-0.221,0.198-0.513,0.467c-0.277,0.259,0.751,1.831,2.29,3.514c1.549,1.699,3.034,2.836,3.311,2.592l0.513-0.467
			c16.425-15.059,37.803-23.344,60.215-23.344c11.849,0,23.384,2.313,34.271,6.881c36.262,15.213,57.797,52.242,54.009,90.558
			c-0.3,3.042-3.077,4.756-6.002,3.87l-7.49-2.267c-2.914-0.892-4.113,0.568-2.676,3.255l10.425,19.537
			c1.442,2.687,4.783,3.705,7.475,2.268l19.53-10.428c2.691-1.437,2.504-3.318-0.422-4.212l-8.287-2.511
			c-2.92-0.878-4.839-4.044-4.494-7.071C277.052,70.85,253.408,29.541,213.262,12.69z"/>
	</g>
</g>
<g>
</g>
<g>
</g>
<g>
</g>
<g>
</g>
<g>
</g>
<g>
</g>
<g>
</g>
<g>
</g>
<g>
</g>
<g>
</g>
<g>
</g>
<g>
</g>
<g>
</g>
<g>
</g>
<g>
</g>
</svg>
