<?xml version="1.0" encoding="iso-8859-1"?>
<!-- Generator: Adobe Illustrator 16.0.0, SVG Export Plug-In . SVG Version: 6.00 Build 0)  -->
<!DOCTYPE svg PUBLIC "-//W3C//DTD SVG 1.1//EN" "http://www.w3.org/Graphics/SVG/1.1/DTD/svg11.dtd">
<svg version="1.1" id="Capa_1" xmlns="http://www.w3.org/2000/svg" xmlns:xlink="http://www.w3.org/1999/xlink" x="0px" y="0px"
	 width="485.213px" height="485.212px" viewBox="0 0 485.213 485.212" style="enable-background:new 0 0 485.213 485.212;"
	 xml:space="preserve" fill="#1a237e">
<g>
	<path d="M394.236,212.282L272.934,333.584V272.93c0,0-121.304-30.324-181.955,60.654c0-100.483,81.469-181.956,181.955-181.956
		V90.978L394.236,212.282z M485.212,242.606c0,133.976-108.627,242.606-242.604,242.606c-133.994,0-242.606-108.631-242.606-242.606
		C0.001,108.628,108.613,0,242.607,0C376.585,0,485.212,108.628,485.212,242.606z M454.89,242.606
		c0-117.038-95.241-212.279-212.282-212.279c-117.055,0-212.28,95.241-212.28,212.279c0,117.039,95.225,212.28,212.28,212.28
		C359.648,454.886,454.89,359.645,454.89,242.606z"/>
</g>
</svg>